name analog
datacolumns 19
datarows 27
range 0.20350000000000001 0.2165
endheader
time	ground_force_vx	ground_force_vy	ground_force_vz	ground_force_px	ground_force_py	ground_force_pz	l_ground_force_vx	l_ground_force_vy	l_ground_force_vz	l_ground_force_px	l_ground_force_py	l_ground_force_pz	ground_torque_x	ground_torque_y	ground_torque_z	l_ground_torque_x	l_ground_torque_y	l_ground_torque_z
0.20350000000000001	-0.0	-0.0	-0.0	-7.987192153930664	30.38776969909668	-386.2361450195313	7.5292277336120605	-28.351261138916016	-397.0514526367188	-0.0	-0.0	-0.0	-0.0	-0.0	-0.0	101958.8515625	14416.6796875	-6541.83203125
0.20400000000000001	-0.0	-0.0	-0.0	-8.43906021118164	30.126075744628903	-385.8147888183594	7.570598602294922	-28.591821670532227	-395.9602661132813	-0.0	-0.0	-0.0	-0.0	-0.0	-0.0	101812.578125	14298.578125	-6391.634765625
0.20450000000000002	-0.0	-0.0	-0.0	-8.570036888122559	29.94781494140625	-385.5074462890625	8.049806594848633	-28.22162628173828	-396.1012573242188	-0.0	-0.0	-0.0	-0.0	-0.0	-0.0	101501.515625	14448.892578125	-6266.29248046875
0.20500000000000002	-0.0	-0.0	-0.0	-8.742630004882812	29.96550941467285	-384.9895324707031	7.919336795806885	-28.09783363342285	-394.5641479492188	-0.0	-0.0	-0.0	-0.0	-0.0	-0.0	101383.8671875	14417.900390625	-6242.87890625
0.20550000000000002	-0.0	-0.0	-0.0	-8.397745132446289	30.161680221557617	-384.7777099609375	8.220419883728027	-28.10382461547852	-393.8199462890625	-0.0	-0.0	-0.0	-0.0	-0.0	-0.0	101431.8984375	14252.2197265625	-6143.71044921875
0.20600000000000002	-0.0	-0.0	-0.0	-8.385787963867188	29.59733390808105	-384.5172424316406	8.65226936340332	-27.76239776611328	-393.6801452636719	-0.0	-0.0	-0.0	-0.0	-0.0	-0.0	101003.703125	14531.9794921875	-5991.0498046875
0.20650000000000002	-0.0	-0.0	-0.0	-8.112046241760254	29.549779891967773	-382.2132873535156	8.522234916687012	-28.25696563720703	-392.9819641113281	-0.0	-0.0	-0.0	-0.0	-0.0	-0.0	101105.46875	14648.740234375	-6094.06689453125
0.20700000000000002	-0.0	-0.0	-0.0	-8.719675064086914	29.775733947753903	-383.6932678222656	8.5040864944458	-27.815282821655277	-393.8191528320313	-0.0	-0.0	-0.0	-0.0	-0.0	-0.0	100945.1640625	14799.3544921875	-6066.296875
0.20750000000000002	-0.0	-0.0	-0.0	-8.89600658416748	29.87119483947754	-382.215087890625	8.42752456665039	-28.03295135498047	-392.04888916015625	-0.0	-0.0	-0.0	-0.0	-0.0	-0.0	101052.7109375	14938.16015625	-6200.9111328125
0.20800000000000002	-0.0	-0.0	-0.0	-9.051708221435549	29.648866653442383	-381.2202453613281	7.835391521453857	-27.80897521972656	-393.25823974609375	-0.0	-0.0	-0.0	-0.0	-0.0	-0.0	101111.8203125	15161.431640625	-6191.630859375
0.2085	-0.0	-0.0	-0.0	-9.504115104675291	29.97641372680664	-382.1154174804688	8.120177268981934	-28.092548370361328	-394.0794067382813	-0.0	-0.0	-0.0	-0.0	-0.0	-0.0	101102.140625	15328.970703125	-6123.83447265625
0.209	-0.0	-0.0	-0.0	-9.972173690795898	29.86514663696289	-380.1597900390625	8.37999153137207	-28.25661277770996	-394.0050964355469	-0.0	-0.0	-0.0	-0.0	-0.0	-0.0	101167.8515625	15357.8681640625	-6084.470703125
0.2095	-0.0	-0.0	-0.0	-9.745716094970703	29.75	-380.1336364746094	8.775956153869629	-28.004358291625977	-394.7537536621094	-0.0	-0.0	-0.0	-0.0	-0.0	-0.0	101340.984375	15602.3837890625	-6109.52001953125
0.21	-0.0	-0.0	-0.0	-9.81975555419922	29.79763603210449	-380.7018737792969	8.617918014526367	-28.30387115478516	-393.843017578125	-0.0	-0.0	-0.0	-0.0	-0.0	-0.0	101165.578125	15558.044921875	-5975.1103515625
0.2105	-0.0	-0.0	-0.0	-9.936959266662598	29.604631423950195	-378.4190979003906	8.489991188049316	-28.426517486572266	-393.843017578125	-0.0	-0.0	-0.0	-0.0	-0.0	-0.0	101009.7265625	15515.4560546875	-6007.05322265625
0.211	-0.0	-0.0	-0.0	-9.923412322998049	29.35080337524414	-379.885009765625	8.345431327819824	-28.861427307128903	-394.5413208007813	-0.0	-0.0	-0.0	-0.0	-0.0	-0.0	101008.6484375	15690.798828125	-6160.0029296875
0.2115	-0.0	-0.0	-0.0	-10.0327787399292	29.145641326904297	-378.8812255859375	7.990662574768066	-29.15281867980957	-395.18695068359375	-0.0	-0.0	-0.0	-0.0	-0.0	-0.0	101081.3671875	15743.2939453125	-6237.8837890625
0.212	-0.0	-0.0	-0.0	-9.868084907531738	29.17301750183105	-378.7178649902344	8.297842025756836	-29.01030540466309	-396.4483642578125	-0.0	-0.0	-0.0	-0.0	-0.0	-0.0	101307.9296875	15894.5712890625	-6219.4775390625
0.2125	-0.0	-0.0	-0.0	-9.79929256439209	28.88517570495605	-377.8476257324219	8.386577606201172	-28.92874526977539	-395.18597412109375	-0.0	-0.0	-0.0	-0.0	-0.0	-0.0	101266.984375	15760.51171875	-6141.83935546875
0.213	-0.0	-0.0	-0.0	-9.950475692749023	29.01544570922852	-375.6207275390625	8.877969741821289	-28.77228546142578	-396.69049072265625	-0.0	-0.0	-0.0	-0.0	-0.0	-0.0	101406.7890625	15985.005859375	-6022.79443359375
0.2135	-0.0	-0.0	-0.0	-9.504460334777832	29.00840759277344	-374.1297302246094	9.137210845947266	-28.759113311767575	-395.6161804199219	-0.0	-0.0	-0.0	-0.0	-0.0	-0.0	101303.8203125	15905.03125	-5990.61279296875
0.214	-0.0	-0.0	-0.0	-9.511643409729004	29.31675910949707	-374.1799926757813	9.314632415771484	-29.098493576049805	-395.6441650390625	-0.0	-0.0	-0.0	-0.0	-0.0	-0.0	101363.5703125	16004.4140625	-5956.18359375
0.2145	-0.0	-0.0	-0.0	-9.236894607543944	29.66600799560547	-373.3397521972656	9.32172966003418	-28.84762954711914	-397.1739501953125	-0.0	-0.0	-0.0	-0.0	-0.0	-0.0	101684.9921875	16000.560546875	-6006.47900390625
0.215	-0.0	-0.0	-0.0	-9.571906089782717	29.65406608581543	-374.2374572753906	9.403343200683594	-29.22733688354492	-397.5232543945313	-0.0	-0.0	-0.0	-0.0	-0.0	-0.0	101513.4140625	16220.4990234375	-5874.21630859375
0.2155	-0.0	-0.0	-0.0	-9.716580390930176	29.33861923217773	-374.7239379882813	9.621496200561523	-29.167802810668945	-398.35345458984375	-0.0	-0.0	-0.0	-0.0	-0.0	-0.0	102195.75	16111.7744140625	-5935.79736328125
0.216	-0.0	-0.0	-0.0	-9.642156600952148	29.49096298217773	-375.00335693359375	9.10381031036377	-28.962242126464844	-397.9466247558594	-0.0	-0.0	-0.0	-0.0	-0.0	-0.0	102194.8515625	16458.806640625	-5904.025390625
0.2165	-0.0	-0.0	-0.0	-9.716448783874512	29.308921813964844	-375.5193176269531	9.041122436523438	-28.88853645324707	-398.1058044433594	-0.0	-0.0	-0.0	-0.0	-0.0	-0.0	102160.609375	16523.25390625	-6109.232421875
